<?xml version="1.0" encoding="utf-8"?>
<!-- Generator: Adobe Illustrator 22.1.0, SVG Export Plug-In . SVG Version: 6.00 Build 0)  -->
<svg version="1.1" id="Capa_1" xmlns="http://www.w3.org/2000/svg" xmlns:xlink="http://www.w3.org/1999/xlink" x="0px" y="0px"
	 viewBox="-608 27.9 512 512" style="enable-background:new -608 27.9 512 512;" xml:space="preserve">
<path d="M-352.9,533.4c-66.2,0-128.4-25.9-175.5-72.9c-47.5-47.5-73.5-110.6-73.2-177.7c0.3-66.6,26.6-129.1,74.1-176.1
	c47.4-47,110.3-72.6,177.1-72.2c66.6,0.4,129.1,26.8,176,74.4c46.9,47.5,72.4,110.4,71.9,177.2c-1,136.6-112.6,247.4-248.8,247.4
	C-351.8,533.4-352.3,533.4-352.9,533.4z M-351.9,54.4c-60.9,0-118.1,23.6-161.5,66.4c-43.7,43.2-67.9,100.8-68.2,162
	c-0.3,61.7,23.6,119.8,67.3,163.5c43.2,43.3,100.5,67.1,161.3,67.1c0.3,0,0.6,0,0.9,0h0.1c0.2,0,0.5,0,0.7,0
	c125.2,0,227.8-101.9,228.8-227.5c0.5-61.4-23-119.3-66.1-163c-43.2-43.8-100.7-68.1-161.9-68.5C-350.9,54.4-351.4,54.4-351.9,54.4z
	"/>
<g>
	<path d="M-331.6,257.3c19.7,2.8,38.9,5.5,58.7,8.3c1.7-6,3.1-11,4.7-16.9c-20.4-3-39.8-5.9-60.7-9c7-24.9,13.1-48.6,20.7-71.9
		c2.5-7.7,8.1-14.8,13.8-20.8c7.5-7.8,17.8-6.1,24.1,2.5c2.6,3.6,5.1,7.4,8.3,10.5c4.1,3.9,10,5.8,14.1,2c2.7-2.5,2.6-8.4,2.8-12.8
		c0.1-1.8-2-3.9-3.5-5.5c-7.1-8-16.6-10.8-26.7-11.3c-22.5-0.9-38.7,10.5-51.3,27.9c-12.6,17.2-18.1,37.4-24.1,57.4
		c-1.8,5.8-3.2,11.7-5,18.1c-21.9-3.2-42.9-6.2-64.6-9.3c-0.8,5.8-1.5,11.3-2.2,17.1c21.4,3.3,41.9,6.4,63.1,9.7
		c-2.8,11.9-5.5,23.1-8.2,34.5c-20.8-2.9-40.5-5.7-60.3-8.4c-0.8,6.4-1.5,11.2-2.2,16.9c19.9,3,39.1,6,58.4,8.9c0,2.2,0.2,3.4,0,4.6
		c-6.2,26.3-11.9,52.7-18.8,78.8c-3.3,12.4-8.6,24.4-19,33.2c-8.5,7.2-17.9,6-24.3-2.9c-2.9-4-5.3-8.8-9.1-11.6
		c-2.8-2.1-9-3.3-11-1.6c-3,2.5-5.2,7.9-5,11.9c0.2,3.5,3.6,7.7,6.8,10.1c10.5,8.1,22.9,9.3,35.5,6.8c21-4.1,35.9-17.3,45-35.8
		c7.2-14.6,12.6-30.2,17.7-45.7c4.6-14,7.8-28.6,11.7-43.4c20.6,3,40.9,5.9,61.5,8.9c1.7-5.9,3.2-11.2,4.9-17
		c-21.6-3.2-42.2-6.2-63-9.3C-336.3,280-334.1,269.1-331.6,257.3z"/>
</g>
<path d="M-352.8,491.8c-55.1,0-107-21.6-146.2-60.8c-39.6-39.6-61.2-92.2-61-148.1c0.3-55.5,22.2-107.6,61.8-146.8
	C-458.9,97.4-407,76-351.9,76c0.4,0,0.8,0,1.3,0c55.5,0.3,107.5,22.4,146.7,62c39.1,39.6,60.3,92,59.9,147.6
	c-0.9,113.8-93.8,206.1-207.3,206.1C-351.8,491.8-352.3,491.8-352.8,491.8z M-351.9,84c-53,0-102.9,20.5-140.6,57.9
	c-38.1,37.7-59.2,87.8-59.4,141.1c-0.2,53.8,20.6,104.3,58.6,142.4c37.9,37.9,88,58.6,141.3,58.4h0c0.2,0,0.4,0,0.6,0
	c109.1,0,198.4-88.8,199.3-198.2c0.4-53.5-20-103.9-57.6-142c-37.6-38.1-87.7-59.3-141-59.6C-351.1,84-351.5,84-351.9,84z"/>
</svg>
