<?xml version="1.0" encoding="UTF-8"?>
<svg width="114px" height="113px" viewBox="0 0 114 113" version="1.1" xmlns="http://www.w3.org/2000/svg" xmlns:xlink="http://www.w3.org/1999/xlink">
    <!-- Generator: Sketch 41.2 (35397) - http://www.bohemiancoding.com/sketch -->
    <title>black_mark</title>
    <desc>Created with Sketch.</desc>
    <defs></defs>
    <g id="Page-1" stroke="none" stroke-width="1" fill="none" fill-rule="evenodd">
        <g id="black_mark" fill="#252A2E">
            <path d="M54.1843393,73.7974132 C54.9026455,74.2121321 55.4849476,75.215914 55.4849476,76.0516174 L55.4849476,91.8024386 C55.4849476,92.6326823 54.9073691,92.9722961 54.1843393,92.5548966 L40.5571214,84.6880079 C39.8388153,84.2733353 39.2565131,83.2695537 39.2565131,82.4338037 L39.2565131,66.6821044 C39.2565131,65.8518144 39.8340917,65.5122003 40.5571214,65.9296464 L54.1843393,73.7974132 Z M74.749641,60.1931794 C74.7495947,61.0232458 74.1717626,62.0297239 73.4484624,62.4473045 L59.8161472,70.3176067 C59.0975724,70.7324593 58.5150524,70.4013578 58.5150524,69.5658794 L58.5150524,53.8193004 C58.5150524,52.9892803 59.0928842,51.9828025 59.816231,51.5651752 L73.4494243,43.693995 C74.1680454,43.2790961 74.7505657,43.6101974 74.7505191,44.4457223 L74.749641,60.1931794 Z M71.933764,39.574317 C72.6546455,39.9905971 72.6609532,40.6618154 71.9372931,41.0796216 L58.2981946,48.9541749 C57.5792622,49.3692515 56.4100006,49.3671388 55.6911059,48.9520717 L22.8077597,29.966262 C22.0868368,29.5500237 22.0805681,28.878766 22.8043192,28.4608679 L36.4451327,20.5845823 C37.1641554,20.1694143 38.3334566,20.171487 39.0523099,20.586596 L71.933764,39.574317 Z M36.2264084,80.6899932 C36.2264084,81.5146769 35.6489019,81.8497821 34.9259624,81.4323809 L21.3004459,73.5654606 C20.5822295,73.1507863 20,72.1373785 20,71.3071823 L20,33.3327401 C20,32.5002018 20.5863015,32.1637945 21.3050121,32.5787387 L54.1799355,51.5589201 C54.9006738,51.9750349 55.4849476,52.9799122 55.4849476,53.8155702 L55.4849476,69.5655365 C55.4849476,70.3957351 54.9085778,70.7360201 54.1914363,70.3220322 L37.5199197,60.6979804 C36.8055331,60.2855828 36.2264084,60.6166265 36.2264084,61.4444905 L36.2264084,80.6899932 Z M77.7663773,42.6942482 C77.7664525,41.869528 78.3442718,40.8673833 79.0675266,40.449802 L92.6989868,32.5794865 C93.4175165,32.1646332 94,32.505593 94,33.3358098 L94,71.3111997 C94,72.1437589 93.4136985,73.1571798 92.6949879,73.5721239 L59.8200645,92.5523054 C59.0993262,92.9684202 58.5150524,92.6381616 58.5150524,91.8024575 L58.5150524,76.051623 C58.5150524,75.2213786 59.0911497,74.2156993 59.8079522,73.8018242 L76.4715875,64.1803968 C77.1856363,63.7681117 77.7645479,62.7685011 77.7646234,61.9406006 L77.7663773,42.6942482 Z M61.3191202,29.9581298 C60.6002318,29.5430055 60.5954685,28.8727968 61.3190395,28.4550815 L74.9564579,20.5822405 C75.6753017,20.1672541 76.8360493,20.1645615 77.5596186,20.5823225 L91.1970046,28.4560229 C91.9158467,28.8710546 91.9206097,29.5412626 91.1970853,29.9590712 L77.560545,37.8336683 C76.8417474,38.2487473 75.6810001,38.2514405 74.9573843,37.8335863 L61.3191202,29.9581298 Z" id="Shape"></path>
        </g>
    </g>
</svg>